<?xml version="1.0" encoding="UTF-8"?>
<svg version="1.1" xmlns="http://www.w3.org/2000/svg" width="555" height="533">
<path d="M0 0 C183.15 0 366.3 0 555 0 C555 175.89 555 351.78 555 533 C371.85 533 188.7 533 0 533 C0 357.11 0 181.22 0 0 Z " fill="#F0EBE0" transform="translate(0,0)"/>
<path d="M0 0 C9.17441459 7.25319398 17.03143578 15.24352864 23.25 25.1875 C23.85070312 26.14398438 24.45140625 27.10046875 25.0703125 28.0859375 C30.12696876 36.54099433 34.19452692 45.36957548 38.12988281 54.39697266 C44.61146433 69.0179341 54.00179296 82.50519687 65.5859375 93.55859375 C67.25 95.1875 67.25 95.1875 69.25 97.75 C71.61588573 100.63342323 74.29049463 102.89016636 77.11328125 105.31640625 C93.17393773 119.38049118 105.82137702 137.66987878 116.25 156.1875 C116.71067871 157.00202637 117.17135742 157.81655273 117.64599609 158.65576172 C130.93271819 182.30029534 142.44882858 206.83771126 153.60931396 231.54034424 C175.80242699 280.85886701 175.80242699 280.85886701 203.15942383 327.43359375 C204.31935285 329.2990359 205.29666103 331.20964087 206.25 333.1875 C198.61945905 332.57705672 191.54810526 330.39128179 184.25 328.1875 C185.08402344 329.14269531 185.91804688 330.09789062 186.77734375 331.08203125 C192.6270344 337.79705043 198.41950862 344.53876841 204.01953125 351.46484375 C206.03829651 353.92908085 208.09999453 356.35048116 210.17871094 358.76416016 C215.80175274 365.30982526 221.02120559 372.09449899 226.15625 379.02734375 C229.26402983 383.22264933 232.44094922 387.36246497 235.625 391.5 C245.58810452 404.48489769 255.21441454 417.71371636 264.7487793 431.01538086 C268.32018623 435.97285633 272.02042715 440.76227534 275.95703125 445.4375 C277.25 447.1875 277.25 447.1875 277.25 449.1875 C254.53518832 450.46520816 238.603942 442.21448357 221.83862305 427.31469727 C216.33157475 422.34505089 211.24976414 417.07108786 206.29296875 411.55078125 C202.69990493 407.55405671 199.00385537 403.65573693 195.3125 399.75 C190.55747278 394.71094093 185.81741017 389.6599476 181.125 384.5625 C180.64417969 384.04115479 180.16335938 383.51980957 179.66796875 382.98266602 C177.68140204 380.82844954 175.69535224 378.67382862 173.71630859 376.51269531 C166.16870239 368.27682208 158.43076981 360.24281251 150.5625 352.3125 C149.70793213 351.44496094 148.85336426 350.57742188 147.97290039 349.68359375 C121.93295492 323.60620946 91.53230693 308.70708434 56.25 299.1875 C55.36723389 298.92267822 54.48446777 298.65785645 53.57495117 298.38500977 C48.94110571 297.16383781 47.1051075 296.72602858 42.75390625 299.07421875 C41.74557704 299.97765025 40.76463661 300.91252812 39.8125 301.875 C39.31041016 302.33583984 38.80832031 302.79667969 38.29101562 303.27148438 C36.91461752 304.54579203 35.58037918 305.86522054 34.25 307.1875 C33.64027344 307.79207031 33.03054688 308.39664062 32.40234375 309.01953125 C31.83193359 309.59767578 31.83193359 309.59767578 31.25 310.1875 C31.78109375 310.744375 32.3121875 311.30125 32.859375 311.875 C40.68036512 320.32395283 44.39361969 326.99533909 44.34765625 338.578125 C44.34553383 339.63504547 44.34553383 339.63504547 44.34336853 340.71331787 C44.33778933 342.95475584 44.32524073 345.19609243 44.3125 347.4375 C44.30748231 348.96093605 44.30291987 350.48437368 44.29882812 352.0078125 C44.28782674 355.73440772 44.27057646 359.46094396 44.25 363.1875 C42.51598892 362.26461361 40.78476428 361.33649086 39.0546875 360.40625 C38.09030762 359.88998047 37.12592773 359.37371094 36.13232422 358.84179688 C27.09767935 353.65640354 20.14353013 347.76219378 16.91455078 337.70605469 C15.83006046 333.59598776 15.46318328 329.47729094 15.125 325.25 C14.97991833 323.57392488 14.83163909 321.89812251 14.6796875 320.22265625 C14.62022949 319.4944165 14.56077148 318.76617676 14.49951172 318.01586914 C14.33715058 316.09332792 14.33715058 316.09332792 13.25 314.1875 C13.10035197 318.5798615 12.99218674 322.97082766 12.92041016 327.36499023 C12.89045519 328.85581342 12.84967431 330.34646368 12.79736328 331.83666992 C12.39017568 343.43347329 12.39017568 343.43347329 17.68066406 353.5378418 C25.86464615 362.14069914 36.63507033 368.21245846 46.50732422 374.71533203 C53.78897761 379.51901071 61.04306034 384.36442483 68.3019104 389.20245361 C70.98643611 390.99096334 73.67221475 392.77757928 76.3581543 394.56396484 C78.02527034 395.67408986 79.69234571 396.78427597 81.359375 397.89453125 C82.14071304 398.41369614 82.92205109 398.93286102 83.72706604 399.46775818 C84.79754433 400.18138268 84.79754433 400.18138268 85.88964844 400.90942383 C86.51691833 401.32686356 87.14418823 401.74430328 87.79046631 402.1743927 C89.25 403.1875 89.25 403.1875 90.25 404.1875 C90.25 412.4375 90.25 420.6875 90.25 429.1875 C54.94 429.1875 19.63 429.1875 -16.75 429.1875 C-16.75 384.6375 -16.75 340.0875 -16.75 294.1875 C-1.80060554 294.1875 -1.80060554 294.1875 5.3125 296.125 C6.03115234 296.30740234 6.74980469 296.48980469 7.49023438 296.67773438 C10.21542114 297.37229078 12.92504973 298.08581854 15.609375 298.92578125 C16.42148437 299.05533203 16.42148437 299.05533203 17.25 299.1875 C17.971875 298.61 18.69375 298.0325 19.4375 297.4375 C23.08379367 294.52046506 26.81079375 293.46413448 31.25 292.1875 C30.49783203 291.89359375 30.49783203 291.89359375 29.73046875 291.59375 C26.89719651 290.47395586 24.07350337 289.33172796 21.25 288.1875 C20.56873047 287.91373535 19.88746094 287.6399707 19.18554688 287.35791016 C-4.85984901 277.65455158 -26.33442197 265.70035412 -44.75 247.1875 C-45.23162598 246.70845215 -45.71325195 246.2294043 -46.20947266 245.73583984 C-67.09728002 224.73431866 -80.69035085 196.21225849 -85.75 167.1875 C-85.86756149 166.52001236 -85.98512299 165.85252472 -86.10624695 165.16481018 C-88.62275694 150.59089038 -89.58774525 136.07035896 -90.3125 121.3125 C-91.84273606 90.84869256 -94.50027626 65.79347842 -116.75 43.1875 C-117.45898438 42.31738281 -118.16796875 41.44726562 -118.8984375 40.55078125 C-123.09991842 37.068732 -127.58840812 36.09759158 -132.8125 34.75 C-133.89345947 34.45778564 -134.97441895 34.16557129 -136.08813477 33.86450195 C-145.94020005 31.2613397 -155.89170612 29.12501335 -165.88500977 27.14086914 C-167.01479248 26.91262451 -168.1445752 26.68437988 -169.30859375 26.44921875 C-170.31204834 26.25287842 -171.31550293 26.05653809 -172.34936523 25.85424805 C-174.75 25.1875 -174.75 25.1875 -176.75 23.1875 C-158.1369124 14.41975611 -137.04370056 12.04434513 -116.75 11.1875 C-116.40195313 10.11435547 -116.40195313 10.11435547 -116.046875 9.01953125 C-110.75355814 -2.53966973 -97.15962838 -10.08479583 -85.734375 -14.37890625 C-57.26700451 -24.42175342 -23.92970397 -18.2508111 0 0 Z " fill="#187FCE" transform="translate(251.75,78.8125)"/>
<path d="M0 0 C0.75152344 0.17273438 1.50304687 0.34546875 2.27734375 0.5234375 C4.19186728 0.98776834 6.09705697 1.49028312 8 2 C5.06006416 6.0174366 1.76235288 8.92802144 -2.25 11.8125 C-3.08144531 12.42254883 -3.08144531 12.42254883 -3.9296875 13.04492188 C-5.28210453 14.03591711 -6.64044907 15.01881466 -8 16 C-7.13375 16.928125 -6.2675 17.85625 -5.375 18.8125 C1.56938455 26.89503783 5.13962475 34.81456329 5.09765625 45.390625 C5.0962413 46.09523865 5.09482635 46.79985229 5.09336853 47.52581787 C5.08778933 49.76725584 5.07524073 52.00859243 5.0625 54.25 C5.05748231 55.77343605 5.05291987 57.29687368 5.04882812 58.8203125 C5.03782674 62.54690772 5.02057646 66.27344396 5 70 C3.26598892 69.07711361 1.53476428 68.14899086 -0.1953125 67.21875 C-1.64188232 66.4443457 -1.64188232 66.4443457 -3.11767578 65.65429688 C-12.15232065 60.46890354 -19.10646987 54.57469378 -22.33544922 44.51855469 C-23.41993954 40.40848776 -23.78681672 36.28979094 -24.125 32.0625 C-24.27008167 30.38642488 -24.41836091 28.71062251 -24.5703125 27.03515625 C-24.62977051 26.3069165 -24.68922852 25.57867676 -24.75048828 24.82836914 C-24.91284942 22.90582792 -24.91284942 22.90582792 -26 21 C-26.14964803 25.3923615 -26.25781326 29.78332766 -26.32958984 34.17749023 C-26.35954481 35.66831342 -26.40032569 37.15896368 -26.45263672 38.64916992 C-26.85982432 50.24597329 -26.85982432 50.24597329 -21.56933594 60.3503418 C-13.38535385 68.95319914 -2.61492967 75.02495846 7.25732422 81.52783203 C14.53897761 86.33151071 21.79306034 91.17692483 29.0519104 96.01495361 C31.73643611 97.80346334 34.42221475 99.59007928 37.1081543 101.37646484 C38.77527034 102.48658986 40.44234571 103.59677597 42.109375 104.70703125 C42.89071304 105.22619614 43.67205109 105.74536102 44.47706604 106.28025818 C45.19071823 106.75600784 45.90437042 107.23175751 46.63964844 107.72192383 C47.58055328 108.34808342 47.58055328 108.34808342 48.54046631 108.9868927 C50 110 50 110 51 111 C51 119.25 51 127.5 51 136 C15.69 136 -19.62 136 -56 136 C-56 91.45 -56 46.9 -56 1 C-41.05060554 1 -41.05060554 1 -33.9375 2.9375 C-33.21884766 3.11990234 -32.50019531 3.30230469 -31.75976562 3.49023438 C-29.03457886 4.18479078 -26.32495027 4.89831854 -23.640625 5.73828125 C-23.09921875 5.82464844 -22.5578125 5.91101563 -22 6 C-21.278125 5.4225 -20.55625 4.845 -19.8125 4.25 C-13.7411374 -0.60709008 -7.46227644 -1.72318712 0 0 Z " fill="#013269" transform="translate(291,372)"/>
<path d="M0 0 C-0.2165625 0.89074219 -0.433125 1.78148437 -0.65625 2.69921875 C-6.50603973 29.27467131 -3.93292123 54.77984672 8 79 C8.49628906 80.00933594 8.99257812 81.01867187 9.50390625 82.05859375 C13.03969204 88.85077082 17.33022737 94.94402399 22 101 C22.64324219 101.84949219 23.28648437 102.69898438 23.94921875 103.57421875 C33.04695783 115.16733769 43.74400028 125.86169759 55.375 134.91015625 C57.56027101 136.64991814 59.63798869 138.44069964 61.72265625 140.296875 C66.12141094 144.16804678 70.73644585 147.69354809 75.4375 151.1875 C76.30858398 151.83750977 77.17966797 152.48751953 78.07714844 153.15722656 C86.28148429 159.25451945 94.60417428 165.17029975 103 171 C103.97283936 171.6794165 103.97283936 171.6794165 104.96533203 172.37255859 C120.9236223 183.51491492 137.19744407 194.17305062 154 204 C154.94552734 204.55397461 155.89105469 205.10794922 156.86523438 205.67871094 C170.89854178 213.89825861 170.89854178 213.89825861 185 222 C182 223 182 223 178.80908203 221.65527344 C177.49511236 220.98340655 176.18669795 220.3006088 174.8828125 219.609375 C174.17601349 219.244953 173.46921448 218.88053101 172.74099731 218.50506592 C171.24345671 217.73234791 169.74800659 216.95556702 168.2545166 216.17504883 C165.40095832 214.68778087 162.5322197 213.2314617 159.66293335 211.77484131 C156.06141334 209.9440265 152.46812374 208.09722564 148.875 206.25 C147.73263885 205.66273132 147.73263885 205.66273132 146.56719971 205.06359863 C134.84778244 199.03272881 123.19573124 192.89934556 111.67822266 186.48925781 C108.76238895 184.86787353 105.84014352 183.2583627 102.91796875 181.6484375 C71.83858531 164.46237844 40.35289009 146.2370818 14.18359375 121.97265625 C12.64612681 120.58371027 11.05353515 119.25460507 9.42578125 117.97265625 C7.26306401 116.21392484 5.53933566 114.49870647 3.75 112.375 C1.83168827 110.1162087 -0.09366169 107.90119207 -2.1328125 105.75 C-20.28227345 86.52548387 -30.58097891 62.20626197 -30.2109375 35.78125 C-29.85412581 24.57471976 -26.70437464 15.73408492 -18.75 7.73828125 C-12.26825148 1.80023203 -8.79243111 -0.29308104 0 0 Z " fill="#003A8A" transform="translate(245,183)"/>
<path d="M0 0 C0 43.56 0 87.12 0 132 C-8.58 132 -17.16 132 -26 132 C-26.20328015 116.84885304 -26.36901642 101.69832218 -26.46630955 86.54615593 C-26.51268879 79.51041673 -26.57589842 72.4755858 -26.67895508 65.44042969 C-26.77835408 58.65171837 -26.83054971 51.86395141 -26.85389519 45.07455826 C-26.87053277 42.48365545 -26.90302312 39.89280468 -26.95157051 37.30230331 C-27.01686272 33.67419389 -27.02590423 30.04998854 -27.02172852 26.42138672 C-27.054086 25.34892197 -27.08644348 24.27645721 -27.11978149 23.17149353 C-27.03097273 16.04564713 -27.03097273 16.04564713 -24.08039665 13.05307388 C-21.77943681 11.49447353 -19.49131775 10.22656564 -17 9 C-15.5475536 8.15618674 -14.0988818 7.30579774 -12.65625 6.4453125 C-11.27291498 5.66815799 -9.88751021 4.89467547 -8.5 4.125 C-7.78585938 3.7228125 -7.07171875 3.320625 -6.3359375 2.90625 C-1.13632015 0 -1.13632015 0 0 0 Z " fill="#3E3F40" transform="translate(227,376)"/>
<path d="M0 0 C0.33 0 0.66 0 1 0 C1 34.32 1 68.64 1 104 C-7.25 104 -15.5 104 -24 104 C-24 74.3 -24 44.6 -24 14 C-16.41 9.71 -8.82 5.42 -1 1 C-0.67 0.67 -0.34 0.34 0 0 Z " fill="#3E3F40" transform="translate(191,404)"/>
<path d="M0 0 C4.70889254 0.78481542 6.86894587 3.3637218 10.26953125 6.58203125 C15.84055674 11.8223094 20.79997971 11.98297322 28.1796875 11.78125 C35.28943783 11.29451893 39.50429448 10.12902059 44.375 4.5625 C48.83355901 1.59012732 53.14490831 1.93309068 58.375 2.5625 C61.8125 4.4375 61.8125 4.4375 64.375 6.5625 C68.21739458 9.17016827 72.39848019 8.88933426 76.875 9 C96.35449347 9.7892521 115.73167673 12.90123221 133.375 21.5625 C129.88562321 22.7256256 128.37931774 22.34598272 124.81640625 21.6015625 C123.70716797 21.37726563 122.59792969 21.15296875 121.45507812 20.921875 C120.29427734 20.67953125 119.13347656 20.4371875 117.9375 20.1875 C105.08583802 17.5097639 92.61952211 16.36221519 79.5 16.1875 C78.41203125 16.15011719 77.3240625 16.11273438 76.203125 16.07421875 C69.480317 15.89990343 69.480317 15.89990343 63.765625 19.00390625 C62.58226562 20.27041016 62.58226562 20.27041016 61.375 21.5625 C57.24921092 23.84254133 53.01167026 24.20776226 48.375 23.5625 C47.42625 23.046875 46.4775 22.53125 45.5 22 C40.19057315 19.55766365 35.16089215 20.65708505 29.71875 22.42578125 C26.13127686 23.82511189 22.83643984 25.27538188 19.5625 27.3125 C8.91973738 31.4861324 -3.0147253 27.29801809 -13.5 24.375 C-16.58777108 23.5390791 -19.6785294 22.71450786 -22.76953125 21.890625 C-23.90584236 21.58554771 -23.90584236 21.58554771 -25.06510925 21.27430725 C-32.66591942 19.24917078 -40.33213726 17.58422211 -48.04833984 16.05981445 C-49.32572021 15.80010864 -49.32572021 15.80010864 -50.62890625 15.53515625 C-51.35924072 15.39343994 -52.0895752 15.25172363 -52.84204102 15.10571289 C-54.625 14.5625 -54.625 14.5625 -56.625 12.5625 C-41.2545105 5.32219047 -22.93781039 1.92768628 -6.08203125 0.74609375 C-4.04516869 0.59389575 -2.01838562 0.31319777 0 0 Z " fill="#012E67" transform="translate(131.625,89.4375)"/>
<path d="M0 0 C0 23.1 0 46.2 0 70 C-7.92 70 -15.84 70 -24 70 C-24.38593436 62.74164 -24.69687145 55.48897373 -24.88080692 48.22249031 C-24.96915509 44.84689366 -25.08854711 41.4787327 -25.2824707 38.10742188 C-26.44807498 16.26343302 -26.44807498 16.26343302 -22.3571167 10.80993652 C-18.36512733 7.37527151 -13.93575209 5.39293079 -8.98141479 3.71575928 C-5.80283694 2.56754105 -3.39206592 0 0 0 Z " fill="#3E3F40" transform="translate(158,438)"/>
<path d="M0 0 C0.33 0 0.66 0 1 0 C1 34.32 1 68.64 1 104 C-7.25 104 -15.5 104 -24 104 C-24 74.3 -24 44.6 -24 14 C-16.41 9.71 -8.82 5.42 -1 1 C-0.67 0.67 -0.34 0.34 0 0 Z M-22 15 C-22 44.04 -22 73.08 -22 103 C-14.74 103 -7.48 103 0 103 C-0.33 73.96 -0.66 44.92 -1 15 C-1.66 15.66 -2.32 16.32 -3 17 C-2.6814823 19.10820797 -2.6814823 19.10820797 -2 21 C-2.99 21.495 -2.99 21.495 -4 22 C-4.33 22.99 -4.66 23.98 -5 25 C-8.46941546 24.54177532 -11.67395049 24.10868317 -15 23 C-17.00875442 23.27571139 -19.01178687 23.60235737 -21 24 C-21 21.03 -21 18.06 -21 15 C-21.33 15 -21.66 15 -22 15 Z " fill="#393A3A" transform="translate(191,404)"/>
<path d="M0 0 C0 43.56 0 87.12 0 132 C-8.58 132 -17.16 132 -26 132 C-26 93.39 -26 54.78 -26 15 C-25.34 14.67 -24.68 14.34 -24 14 C-24 52.61 -24 91.22 -24 131 C-16.74 131 -9.48 131 -2 131 C-2.495 68.135 -2.495 68.135 -3 4 C-4.98 4.66 -6.96 5.32 -9 6 C-6.84456686 3.61767916 -3.40706718 0 0 0 Z " fill="#313332" transform="translate(227,376)"/>
<path d="M0 0 C0 23.1 0 46.2 0 70 C-7.92 70 -15.84 70 -24 70 C-24.38593436 62.74164 -24.69687145 55.48897373 -24.88080692 48.22249031 C-24.96915509 44.84689366 -25.08854711 41.4787327 -25.2824707 38.10742188 C-26.44807498 16.26343302 -26.44807498 16.26343302 -22.3571167 10.80993652 C-18.36512733 7.37527151 -13.93575209 5.39293079 -8.98141479 3.71575928 C-5.80283694 2.56754105 -3.39206592 0 0 0 Z M-3 14 C-3 14.66 -3 15.32 -3 16 C-4.2065625 16.4021875 -4.2065625 16.4021875 -5.4375 16.8125 C-6.283125 17.204375 -7.12875 17.59625 -8 18 C-8.33 18.99 -8.66 19.98 -9 21 C-11.5625 22.6875 -11.5625 22.6875 -14 24 C-14.66 23.01 -15.32 22.02 -16 21 C-18.49361571 22.20381448 -20.68143083 23.45428722 -23 25 C-23.43636428 26.97255135 -23.43636428 26.97255135 -23.34057617 29.26611328 C-23.34034958 30.14687531 -23.34012299 31.02763733 -23.33988953 31.93508911 C-23.32440567 32.88721283 -23.30892181 33.83933655 -23.29296875 34.8203125 C-23.28872391 35.79410858 -23.28447906 36.76790466 -23.28010559 37.77120972 C-23.26327786 40.88941805 -23.22561811 44.00698617 -23.1875 47.125 C-23.17245846 49.23566777 -23.15876914 51.34634564 -23.14648438 53.45703125 C-23.11590942 58.63846746 -23.05719546 63.81851497 -23 69 C-15.74 69 -8.48 69 -1 69 C-0.97672326 64.06015884 -0.95691112 59.12051692 -0.94506836 54.18066406 C-0.9401182 52.50910794 -0.93335638 50.83755594 -0.92456055 49.16601562 C-0.86434112 37.40551632 -1.21748982 25.73500615 -2 14 C-2.33 14 -2.66 14 -3 14 Z " fill="#2B2D2D" transform="translate(158,438)"/>
<path d="M0 0 C0 34.32 0 68.64 0 104 C-8.25 104 -16.5 104 -25 104 C-25 74.3 -25 44.6 -25 14 C-23.02 13.34 -21.04 12.68 -19 12 C-19.66 13.32 -20.32 14.64 -21 16 C-21.33 16 -21.66 16 -22 16 C-22.33 44.71 -22.66 73.42 -23 103 C-15.74 103 -8.48 103 -1 103 C-1.10812887 90.97787715 -1.22023807 78.95580946 -1.33933926 66.93379021 C-1.39448486 61.35138766 -1.4478914 55.76897981 -1.49731445 50.18652344 C-1.54508145 44.79836681 -1.59742853 39.4102723 -1.65294075 34.02219009 C-1.67330847 31.96734287 -1.69203061 29.91247865 -1.70907402 27.85760117 C-1.73324188 24.97775895 -1.76327918 22.09803292 -1.79467773 19.21826172 C-1.80331093 17.94619118 -1.80331093 17.94619118 -1.81211853 16.64842224 C-1.86560908 12.32732675 -2.14472413 8.25535041 -3 4 C-4.32 4.33 -5.64 4.66 -7 5 C-2.22727273 0 -2.22727273 0 0 0 Z " fill="#393B39" transform="translate(192,404)"/>
<path d="M0 0 C-3.48937679 1.1631256 -4.99568226 0.78348272 -8.55859375 0.0390625 C-9.66783203 -0.18523437 -10.77707031 -0.40953125 -11.91992188 -0.640625 C-13.08072266 -0.88296875 -14.24152344 -1.1253125 -15.4375 -1.375 C-23.96430524 -3.15162113 -32.2977169 -4.48769376 -41 -5 C-41 -5.33 -41 -5.66 -41 -6 C-48.92 -6.33 -56.84 -6.66 -65 -7 C-65 -8.32 -65 -9.64 -65 -11 C-42.82390456 -13.59720037 -20.3228556 -8.98594129 0 0 Z " fill="#003B8E" transform="translate(265,111)"/>
<path d="M0 0 C0.33 0 0.66 0 1 0 C1 9.57 1 19.14 1 29 C-0.98 29.99 -0.98 29.99 -3 31 C-3 31.99 -3 32.98 -3 34 C-5.1875 34.3125 -5.1875 34.3125 -8 34 C-9.70078544 32.36816532 -11.36214541 30.69498905 -13 29 C-14.91767024 27.37218005 -16.85522043 25.76747267 -18.8125 24.1875 C-19.78832031 23.39730469 -20.76414062 22.60710937 -21.76953125 21.79296875 C-22.50558594 21.20128906 -23.24164063 20.60960937 -24 20 C-23.67 18.02 -23.34 16.04 -23 14 C-22.2265625 14.6496875 -22.2265625 14.6496875 -21.4375 15.3125 C-19.004195 17.1270824 -19.004195 17.1270824 -15.9375 18.25 C-10.66432078 20.59363521 -5.86837602 23.90194253 -1 27 C-0.67 18.09 -0.34 9.18 0 0 Z " fill="#EDE9DF" transform="translate(296,414)"/>
<path d="M0 0 C0 33.99 0 67.98 0 103 C-0.33 103 -0.66 103 -1 103 C-1.01030746 101.84821259 -1.02061493 100.69642517 -1.03123474 99.50973511 C-1.12902457 88.65103714 -1.23176391 77.79239577 -1.33933926 66.93379021 C-1.39448486 61.35138766 -1.4478914 55.76897981 -1.49731445 50.18652344 C-1.54508145 44.79836681 -1.59742853 39.4102723 -1.65294075 34.02219009 C-1.67330847 31.96734287 -1.69203061 29.91247865 -1.70907402 27.85760117 C-1.73324188 24.97775895 -1.76327918 22.09803292 -1.79467773 19.21826172 C-1.8004332 18.37021469 -1.80618866 17.52216766 -1.81211853 16.64842224 C-1.86560908 12.32732675 -2.14472413 8.25535041 -3 4 C-4.32 4.33 -5.64 4.66 -7 5 C-2.22727273 0 -2.22727273 0 0 0 Z " fill="#181A17" transform="translate(192,404)"/>
<path d="M0 0 C5.96187948 -0.24142594 10.76370645 0.46510969 16.4375 2.25 C17.17669678 2.47453857 17.91589355 2.69907715 18.67749023 2.93041992 C23.98411141 4.58068169 29.00589128 6.54834663 34 9 C30.47935142 10.17354953 28.87208497 9.76927746 25.265625 9.0390625 C23.56792969 8.70261719 23.56792969 8.70261719 21.8359375 8.359375 C20.65257812 8.11703125 19.46921875 7.8746875 18.25 7.625 C15.92217091 7.1573787 13.59405307 6.69119214 11.265625 6.2265625 C10.17701172 6.0090332 9.08839844 5.79150391 7.96679688 5.56738281 C4.65127949 4.93330921 1.34843155 4.42100163 -2 4 C-1.34 2.68 -0.68 1.36 0 0 Z " fill="#003284" transform="translate(231,102)"/>
<path d="M0 0 C0.93423645 3.01031744 1.04449911 3.86650268 0 7 C0.66 7.33 1.32 7.66 2 8 C-3.91492272 7.54775239 -9.35199888 6.8417395 -15 5 C-10.48631832 1.18073088 -5.90250682 -0.34720628 0 0 Z " fill="#0E3162" transform="translate(90,98)"/>
<path d="M0 0 C0.33 0 0.66 0 1 0 C1 9.57 1 19.14 1 29 C-0.98 29.99 -0.98 29.99 -3 31 C-3 31.99 -3 32.98 -3 34 C-7.875 32.25 -7.875 32.25 -9 30 C-8.01 29.01 -7.02 28.02 -6 27 C-6.33 26.34 -6.66 25.68 -7 25 C-4.83125748 25.50603992 -3.00032373 25.99983813 -1 27 C-0.67 18.09 -0.34 9.18 0 0 Z " fill="#C6C9C8" transform="translate(296,414)"/>
<path d="M0 0 C2.66710654 0.15240609 4.4505871 0.49364919 6.4453125 2.33203125 C10 6.50625 10 6.50625 10 9 C5.38 9 0.76 9 -4 9 C-4 8.67 -4 8.34 -4 8 C-3.21625 7.87625 -2.4325 7.7525 -1.625 7.625 C1.14057822 7.20882007 1.14057822 7.20882007 3 5 C1.35 5 -0.3 5 -2 5 C-2.33 4.01 -2.66 3.02 -3 2 C-2.01 2 -1.02 2 0 2 C0 1.34 0 0.68 0 0 Z " fill="#2880CB" transform="translate(519,519)"/>
<path d="M0 0 C0.33 0 0.66 0 1 0 C1.33 2.31 1.66 4.62 2 7 C2.33 7 2.66 7 3 7 C3.25034126 9.0600371 3.47443346 11.12327466 3.6875 13.1875 C3.81511719 14.33605469 3.94273437 15.48460937 4.07421875 16.66796875 C3.99127165 20.39185697 3.23546293 22.06905971 1 25 C0.67 25 0.34 25 0 25 C0 16.75 0 8.5 0 0 Z " fill="#E5E3DA" transform="translate(265,397)"/>
<path d="M0 0 C0.66 0.33 1.32 0.66 2 1 C1.51391769 1.41034988 1.02783539 1.82069977 0.52702332 2.2434845 C-1.32472235 4.373524 -1.38955474 5.32105831 -1.43237305 8.10424805 C-1.45216721 8.92487228 -1.47196136 9.74549652 -1.49235535 10.59098816 C-1.49874527 11.47232925 -1.50513519 12.35367035 -1.51171875 13.26171875 C-1.52966995 14.16751175 -1.54762115 15.07330475 -1.56611633 16.00654602 C-1.62030659 18.90014996 -1.65414286 21.79358815 -1.6875 24.6875 C-1.72066539 26.64911165 -1.75515432 28.61070141 -1.79101562 30.57226562 C-1.87603806 35.38139097 -1.9428076 40.19046641 -2 45 C-2.33 45 -2.66 45 -3 45 C-3.07401212 38.91278769 -3.12853646 32.82583574 -3.16479492 26.73828125 C-3.17990586 24.66629476 -3.20039541 22.59434037 -3.22631836 20.52246094 C-3.26260051 17.54874767 -3.27970298 14.57545627 -3.29296875 11.6015625 C-3.30845261 10.67131256 -3.32393646 9.74106262 -3.33988953 8.78262329 C-3.34011612 7.92188202 -3.34034271 7.06114075 -3.34057617 6.17431641 C-3.34723801 5.41486725 -3.35389984 4.65541809 -3.36076355 3.87295532 C-3.24171158 3.25488007 -3.12265961 2.63680481 -3 2 C-2.01 1.34 -1.02 0.68 0 0 Z " fill="#0E1213" transform="translate(171,416)"/>
<path d="M0 0 C3 3 3 3 3.29296875 6.13671875 C3.25816406 7.30847656 3.22335937 8.48023438 3.1875 9.6875 C3.16042969 10.86699219 3.13335937 12.04648437 3.10546875 13.26171875 C3.07066406 14.16535156 3.03585937 15.06898438 3 16 C2.67 16 2.34 16 2 16 C1.67 19.96 1.34 23.92 1 28 C0.67 28 0.34 28 0 28 C0 18.76 0 9.52 0 0 Z " fill="#F9FAF6" transform="translate(264,392)"/>
<path d="M0 0 C0 8.25 0 16.5 0 25 C-0.33 25 -0.66 25 -1 25 C-1.66 18.07 -2.32 11.14 -3 4 C-4.32 4.33 -5.64 4.66 -7 5 C-2.22727273 0 -2.22727273 0 0 0 Z " fill="#191C19" transform="translate(192,404)"/>
<path d="M0 0 C6.9113364 0.47122748 12.72204161 3.20636006 19 6 C15.28233332 7.23922223 13.56110463 6.57018942 9.8125 5.5625 C8.72582031 5.27503906 7.63914063 4.98757812 6.51953125 4.69140625 C5.27236328 4.34916016 5.27236328 4.34916016 4 4 C4 3.34 4 2.68 4 2 C2.68 1.34 1.36 0.68 0 0 Z " fill="#012C7E" transform="translate(246,105)"/>
<path d="M0 0 C2.475 1.98 2.475 1.98 5 4 C0.38 4 -4.24 4 -9 4 C-8.34 3.34 -7.68 2.68 -7 2 C-8.65 1.67 -10.3 1.34 -12 1 C-12 0.67 -12 0.34 -12 0 C-7.71862763 -1.16764701 -4.31952222 -1.00274623 0 0 Z " fill="#0F72C9" transform="translate(522,523)"/>
<path d="M0 0 C1.93784265 0.14120714 3.87526955 0.28812873 5.8125 0.4375 C7.43091797 0.55931641 7.43091797 0.55931641 9.08203125 0.68359375 C12 1 12 1 15 2 C15 2.99 15 3.98 15 5 C13.58249437 4.88490339 12.16598831 4.75746342 10.75 4.625 C9.96109375 4.55539062 9.1721875 4.48578125 8.359375 4.4140625 C4.74870127 3.78040122 2.58358862 2.58358862 0 0 Z " fill="#E5E5DE" transform="translate(242,370)"/>
<path d="M0 0 C3.37503669 1.1858237 5.64722731 2.27573689 8 5 C7.1875 6.9375 7.1875 6.9375 6 9 C5.01 9.33 4.02 9.66 3 10 C2.06576355 6.98968256 1.95550089 6.13349732 3 3 C2.01 2.01 1.02 1.02 0 0 Z " fill="#F2F0E6" transform="translate(283,435)"/>
<path d="M0 0 C0.33 0 0.66 0 1 0 C1 7.26 1 14.52 1 22 C0.67 21.01 0.34 20.02 0 19 C-0.66 19 -1.32 19 -2 19 C-1.34 16.36 -0.68 13.72 0 11 C-0.66 10.67 -1.32 10.34 -2 10 C-1.34 10 -0.68 10 0 10 C0 6.7 0 3.4 0 0 Z " fill="#444646" transform="translate(224,431)"/>
<path d="M0 0 C3.99500618 1.3697164 6.80009492 3.25722422 10 6 C7 7 7 7 5.17578125 6.22265625 C3.45052083 5.1484375 1.72526042 4.07421875 0 3 C0 2.01 0 1.02 0 0 Z " fill="#003E8D" transform="translate(367,370)"/>
<path d="M0 0 C4.23431576 3.60700972 6.4692099 8.14586161 9 13 C6.03 12.505 6.03 12.505 3 12 C3.66 11.34 4.32 10.68 5 10 C4.6390625 9.44570313 4.278125 8.89140625 3.90625 8.3203125 C3.4421875 7.59585937 2.978125 6.87140625 2.5 6.125 C2.0359375 5.40570313 1.571875 4.68640625 1.09375 3.9453125 C0 2 0 2 0 0 Z " fill="#1465C7" transform="translate(449,399)"/>
<path d="M0 0 C0.66 0.33 1.32 0.66 2 1 C1.51917969 1.34675781 1.03835937 1.69351562 0.54296875 2.05078125 C-1.75358112 4.95199235 -1.52026199 7.54171147 -1.6875 11.1875 C-1.75324219 12.45980469 -1.81898438 13.73210937 -1.88671875 15.04296875 C-1.92410156 16.01878906 -1.96148437 16.99460937 -2 18 C-2.33 18 -2.66 18 -3 18 C-3.08074203 15.37438891 -3.1403623 12.75124324 -3.1875 10.125 C-3.21263672 9.37863281 -3.23777344 8.63226563 -3.26367188 7.86328125 C-3.29296875 5.6953125 -3.29296875 5.6953125 -3 2 C-2.01 1.34 -1.02 0.68 0 0 Z " fill="#171A1A" transform="translate(171,416)"/>
<path d="M0 0 C0.33 0 0.66 0 1 0 C1.06058594 0.68707031 1.12117187 1.37414062 1.18359375 2.08203125 C1.26738281 2.98308594 1.35117188 3.88414062 1.4375 4.8125 C1.51871094 5.70582031 1.59992188 6.59914062 1.68359375 7.51953125 C1.93489767 10.12743559 1.93489767 10.12743559 3 13 C2.72428861 15.00875442 2.39764263 17.01178687 2 19 C-0.44989101 15.25764681 -0.23086143 11.55774581 -0.125 7.25 C-0.11597656 6.55261719 -0.10695312 5.85523438 -0.09765625 5.13671875 C-0.07419888 3.42433042 -0.03833104 1.71211996 0 0 Z " fill="#002C7C" transform="translate(215,218)"/>
<path d="M0 0 C2.93200474 2.85276137 5.64315404 5.65079784 8 9 C7.67 9.66 7.34 10.32 7 11 C6.01 10.34 5.02 9.68 4 9 C3.67 9.66 3.34 10.32 3 11 C2.51171875 9.01432292 2.0234375 7.02864583 1.53515625 5.04296875 C1.08989295 3.34316798 0.55566015 1.66698046 0 0 Z " fill="#136BC8" transform="translate(514,508)"/>
<path d="M0 0 C0.66 0.33 1.32 0.66 2 1 C-3.75 5 -3.75 5 -6 5 C-6.33 6.32 -6.66 7.64 -7 9 C-7.33 8.34 -7.66 7.68 -8 7 C-8.66 6.67 -9.32 6.34 -10 6 C-8.3811004 4.96951963 -6.75467511 3.95085322 -5.125 2.9375 C-4.22007812 2.36902344 -3.31515625 1.80054688 -2.3828125 1.21484375 C-1.20332031 0.61349609 -1.20332031 0.61349609 0 0 Z " fill="#232425" transform="translate(146,444)"/>
<path d="M0 0 C0.33 0.66 0.66 1.32 1 2 C3.02463255 2.65213292 3.02463255 2.65213292 5 3 C5 3.66 5 4.32 5 5 C2.03 4.67 -0.94 4.34 -4 4 C-4.33 3.01 -4.66 2.02 -5 1 C-3.35 0.67 -1.7 0.34 0 0 Z " fill="#013B8C" transform="translate(245,104)"/>
<path d="M0 0 C1.98 0.495 1.98 0.495 4 1 C3.67 2.98 3.34 4.96 3 7 C3.66 7.33 4.32 7.66 5 8 C4.01 8 3.02 8 2 8 C2 7.01 2 6.02 2 5 C1.01 4.67 0.02 4.34 -1 4 C-0.67 2.68 -0.34 1.36 0 0 Z " fill="#00265A" transform="translate(87,98)"/>
<path d="M0 0 C1.2380014 3.57644848 0.74926071 6.33694766 0 10 C-0.33 10 -0.66 10 -1 10 C-1.33 8.02 -1.66 6.04 -2 4 C-3.32 4.33 -4.64 4.66 -6 5 C-4.06745228 2.9754262 -2.36841312 1.57894208 0 0 Z " fill="#232524" transform="translate(191,404)"/>
<path d="M0 0 C1.32 0.33 2.64 0.66 4 1 C1.03 3.475 1.03 3.475 -2 6 C-2.66 5.67 -3.32 5.34 -4 5 C-2.68 3.35 -1.36 1.7 0 0 Z " fill="#00255B" transform="translate(174,95)"/>
<path d="M0 0 C2.475 0.495 2.475 0.495 5 1 C4.34 2.98 3.68 4.96 3 7 C0.64046906 4.64046906 0.50858587 3.22104383 0 0 Z " fill="#1172CA" transform="translate(175,275)"/>
<path d="M0 0 C-0.99 0.495 -0.99 0.495 -2 1 C-1.34 1.66 -0.68 2.32 0 3 C-2.875 3.125 -2.875 3.125 -6 3 C-6.66 2.34 -7.32 1.68 -8 1 C-4.93251126 -0.86240388 -3.40254489 -1.2151946 0 0 Z " fill="#0E1C45" transform="translate(83,101)"/>
</svg>
