<svg id="svg" version="1.1" xmlns="http://www.w3.org/2000/svg" xmlns:xlink="http://www.w3.org/1999/xlink" width="400" height="400" viewBox="0, 0, 400,400"><g id="svgg"><path id="path0" d="M155.027 39.196 C 151.243 42.882,146.235 47.712,143.898 49.929 C 141.561 52.146,135.997 57.579,131.535 62.001 L 123.422 70.043 123.527 77.892 L 123.633 85.742 142.866 85.844 L 162.099 85.945 162.202 59.341 C 162.258 44.709,162.215 32.683,162.106 32.615 C 161.997 32.548,158.812 35.509,155.027 39.196 M237.595 59.049 L 237.695 85.742 257.031 85.742 L 276.367 85.742 276.473 77.902 L 276.578 70.061 268.856 62.441 C 264.608 58.250,258.237 52.022,254.698 48.602 C 251.159 45.181,246.009 40.186,243.253 37.500 C 240.498 34.814,238.075 32.558,237.869 32.486 C 237.632 32.403,237.531 42.153,237.595 59.049 M123.926 129.969 C 123.537 130.108,123.438 146.696,123.438 211.143 L 123.438 292.144 142.676 311.283 L 161.914 330.422 162.013 267.496 C 162.082 223.411,162.237 204.418,162.531 204.064 C 163.113 203.363,237.500 277.743,237.499 279.025 C 237.472 305.657,237.630 330.468,237.827 330.465 C 237.969 330.462,246.744 321.859,257.325 311.345 L 276.564 292.230 276.466 211.057 L 276.367 129.883 257.181 129.769 L 237.996 129.656 237.726 131.332 C 237.578 132.254,237.489 153.127,237.528 177.718 C 237.569 203.102,237.452 222.476,237.257 222.539 C 237.068 222.600,220.083 205.882,199.512 185.388 L 162.109 148.127 162.109 138.896 L 162.109 129.665 143.262 129.730 C 132.896 129.766,124.194 129.874,123.926 129.969 M309.668 223.002 L 286.328 246.316 286.328 264.304 C 286.328 274.197,286.443 282.406,286.583 282.546 C 286.769 282.732,324.568 245.455,332.651 237.113 L 333.594 236.141 333.594 217.875 C 333.594 207.829,333.462 199.627,333.301 199.648 C 333.140 199.670,322.505 210.179,309.668 223.002 M66.406 218.065 L 66.406 236.130 89.745 259.471 C 102.581 272.309,113.172 282.813,113.280 282.813 C 113.388 282.813,113.448 274.534,113.414 264.416 L 113.351 246.019 90.172 223.010 C 77.423 210.355,66.860 200.001,66.699 200.001 C 66.538 200.000,66.406 208.129,66.406 218.065 " stroke="none" fill="#141466" fill-rule="evenodd"></path><path id="path1" d="M99.499 92.882 C 96.966 95.443,96.859 95.823,98.298 97.156 L 99.331 98.113 102.595 94.866 C 106.480 91.001,106.587 90.625,103.796 90.625 C 101.802 90.625,101.659 90.700,99.499 92.882 M104.240 94.570 C 102.123 96.740,100.387 98.717,100.384 98.965 C 100.380 99.212,107.103 106.080,115.325 114.227 C 124.551 123.370,130.049 129.090,129.688 129.172 C 129.338 129.251,123.164 123.388,114.398 114.652 C 106.310 106.593,99.495 100.000,99.253 100.000 C 98.573 100.000,66.764 132.160,66.885 132.724 C 67.093 133.691,98.959 165.200,99.446 164.920 C 99.706 164.771,101.168 163.474,102.694 162.039 L 105.469 159.430 105.469 144.601 C 105.469 133.082,105.578 129.736,105.957 129.612 C 106.637 129.392,180.113 129.592,180.336 129.815 C 180.436 129.915,180.501 134.585,180.482 140.194 C 180.456 147.603,180.568 150.391,180.893 150.391 C 181.553 150.391,199.177 133.083,199.209 132.404 C 199.231 131.928,166.809 99.931,166.434 100.058 C 166.211 100.134,159.458 106.743,151.427 114.746 C 142.721 123.422,136.533 129.297,136.100 129.297 C 135.641 129.297,140.814 123.853,150.207 114.452 C 158.365 106.287,165.103 99.307,165.181 98.942 C 165.274 98.505,163.936 96.963,161.282 94.451 L 157.242 90.625 132.666 90.625 L 108.090 90.625 104.240 94.570 M159.766 91.021 C 159.766 91.239,161.258 92.951,163.082 94.825 L 166.399 98.232 169.723 94.925 C 174.212 90.460,174.340 90.625,166.406 90.625 C 162.178 90.625,159.766 90.769,159.766 91.021 M175.391 91.000 C 174.365 91.634,167.578 98.602,167.578 99.020 C 167.578 99.680,199.435 131.250,200.102 131.250 C 200.885 131.250,232.188 99.863,232.340 98.925 C 232.413 98.470,231.095 96.890,228.586 94.424 L 224.719 90.625 200.348 90.631 C 186.049 90.634,175.734 90.787,175.391 91.000 M226.959 90.918 C 226.970 91.486,233.085 97.656,233.638 97.656 C 234.318 97.656,240.234 91.780,240.234 91.105 C 240.234 90.744,238.582 90.625,233.594 90.625 C 229.941 90.625,226.956 90.757,226.959 90.918 M238.739 94.551 C 236.520 96.694,234.770 98.646,234.851 98.888 C 234.931 99.130,241.669 106.003,249.823 114.161 C 259.068 123.410,264.450 129.068,264.120 129.191 C 263.800 129.311,258.114 123.923,249.667 115.496 C 235.331 101.193,234.089 100.000,233.546 100.000 C 233.055 100.000,201.172 132.062,201.172 132.556 C 201.172 133.033,218.357 150.000,218.841 150.000 C 219.006 150.000,219.141 145.528,219.141 140.062 C 219.141 132.971,219.270 130.044,219.592 129.845 C 220.062 129.555,293.186 129.322,294.043 129.608 C 294.422 129.735,294.531 133.045,294.531 144.403 L 294.531 159.034 297.729 162.109 L 300.926 165.185 301.928 164.454 C 304.305 162.720,333.203 133.206,333.203 132.512 C 333.203 131.641,301.860 100.195,300.992 100.195 C 300.682 100.195,293.855 106.743,285.819 114.746 C 277.144 123.387,270.916 129.297,270.487 129.297 C 270.030 129.297,275.306 123.747,284.784 114.255 C 293.045 105.982,299.851 99.075,299.908 98.905 C 299.965 98.736,298.189 96.804,295.961 94.611 L 291.910 90.625 267.342 90.640 L 242.773 90.654 238.739 94.551 M294.141 90.992 C 294.141 92.121,300.992 97.996,301.736 97.505 C 303.549 96.309,303.450 95.857,300.787 93.170 C 298.352 90.713,294.141 89.333,294.141 90.992 M91.406 100.844 C 88.936 103.229,83.047 108.949,78.320 113.554 C 73.594 118.160,68.979 122.647,68.066 123.527 C 66.340 125.191,65.748 128.046,66.790 129.688 C 67.216 130.359,98.052 99.913,98.040 98.834 C 98.034 98.325,96.442 96.464,96.039 96.495 C 95.962 96.501,93.877 98.458,91.406 100.844 M302.724 97.863 L 301.796 98.850 305.293 102.368 C 309.537 106.638,331.901 128.910,332.616 129.580 C 333.292 130.212,333.594 129.440,333.594 127.077 L 333.594 125.311 321.582 113.524 C 302.561 94.860,304.237 96.252,302.724 97.863 M192.553 140.748 C 188.592 144.700,184.253 149.086,182.910 150.495 L 180.469 153.057 180.469 155.435 L 180.469 157.813 199.639 176.959 C 210.182 187.488,218.935 196.026,219.089 195.930 C 219.243 195.835,219.336 194.646,219.296 193.289 C 219.256 191.931,219.204 182.111,219.182 171.466 L 219.141 152.111 209.956 142.950 C 204.904 137.911,200.542 133.738,200.262 133.677 C 199.983 133.615,196.513 136.797,192.553 140.748 M66.667 135.026 C 66.523 135.169,66.406 145.669,66.406 158.360 L 66.406 181.433 70.595 185.634 L 74.784 189.836 86.415 178.227 C 92.813 171.842,98.047 166.387,98.047 166.105 C 98.047 165.689,91.143 158.735,67.026 134.863 C 66.971 134.810,66.810 134.883,66.667 135.026 M317.385 150.424 L 301.762 165.968 302.932 167.228 C 306.992 171.598,324.548 188.723,325.171 188.921 C 325.760 189.108,326.773 188.295,329.760 185.236 L 333.594 181.310 333.594 158.256 C 333.594 145.577,333.462 135.130,333.301 135.041 C 333.140 134.952,325.977 141.874,317.385 150.424 M102.383 163.528 L 99.929 166.119 102.376 168.587 C 105.446 171.685,105.469 171.665,105.469 165.797 C 105.469 160.123,105.551 160.183,102.383 163.528 M294.531 166.163 C 294.531 172.347,294.355 172.177,297.528 169.045 C 300.508 166.103,300.495 166.267,297.949 163.831 C 294.249 160.291,294.531 160.099,294.531 166.163 M87.496 178.695 C 81.166 185.025,75.934 190.363,75.869 190.557 C 75.726 190.986,102.148 217.578,102.717 217.578 C 102.937 217.578,103.515 218.191,104.000 218.940 C 104.486 219.690,105.005 220.305,105.155 220.308 C 105.304 220.310,105.440 209.616,105.457 196.543 L 105.487 172.773 102.547 169.980 C 100.930 168.444,99.471 167.188,99.306 167.188 C 99.140 167.188,93.826 172.366,87.496 178.695 M297.732 170.247 L 294.526 173.242 294.529 194.941 C 294.531 211.295,294.647 216.756,295.000 217.109 C 295.365 217.474,295.365 217.682,295.000 218.047 C 294.486 218.561,294.357 219.929,294.824 219.910 C 294.985 219.903,301.762 213.265,309.884 205.159 L 324.651 190.420 313.582 179.388 C 299.595 165.448,301.619 166.616,297.732 170.247 M180.483 237.988 C 180.492 243.608,180.639 246.156,180.990 246.787 C 181.673 248.017,199.616 266.016,200.160 266.016 C 200.681 266.016,208.830 257.921,208.574 257.657 C 201.754 250.621,181.091 230.078,180.833 230.078 C 180.619 230.078,180.474 233.347,180.483 237.988 M180.469 266.774 C 180.469 279.013,180.601 284.801,180.884 284.976 C 181.267 285.213,199.219 267.757,199.219 267.147 C 199.219 266.716,181.288 248.828,180.856 248.828 C 180.606 248.828,180.469 255.172,180.469 266.774 M205.176 262.633 C 202.974 264.853,201.172 266.816,201.172 266.994 C 201.172 267.318,207.106 273.430,213.997 280.205 C 216.002 282.176,217.810 284.097,218.015 284.473 C 218.974 286.236,217.108 284.674,211.014 278.613 C 207.396 275.015,203.473 271.145,202.297 270.013 L 200.158 267.956 190.313 277.756 L 180.469 287.556 180.469 300.677 L 180.469 313.798 185.254 318.664 C 192.463 325.996,199.608 332.991,200.046 333.146 C 200.260 333.221,204.400 329.354,209.246 324.552 C 214.092 319.749,218.300 315.589,218.597 315.306 C 219.045 314.879,219.135 310.822,219.127 291.478 L 219.118 268.164 214.350 263.379 C 211.728 260.747,209.492 258.594,209.381 258.595 C 209.270 258.595,207.378 260.412,205.176 262.633 M180.736 316.269 C 180.589 316.416,180.469 323.749,180.469 332.563 L 180.469 348.590 181.518 349.686 C 182.096 350.288,182.677 350.781,182.810 350.781 C 183.193 350.781,199.023 334.780,199.023 334.393 C 199.023 333.630,181.120 315.885,180.736 316.269 M209.863 325.299 C 205.083 330.125,201.172 334.242,201.172 334.450 C 201.172 335.001,216.812 350.391,217.372 350.391 C 219.106 350.391,219.593 341.155,219.146 316.699 C 219.134 316.023,218.148 316.936,209.863 325.299 M191.967 343.361 C 187.684 347.675,184.114 351.394,184.034 351.625 C 183.902 352.007,199.508 367.969,200.013 367.969 C 200.310 367.969,216.179 352.048,216.328 351.601 C 216.467 351.185,200.967 335.798,200.240 335.630 C 199.973 335.568,196.251 339.047,191.967 343.361 " stroke="none" fill="#17bce7" fill-rule="evenodd"></path><path id="path2" d="M0.000 200.000 L 0.000 400.000 200.000 400.000 L 400.000 400.000 400.000 200.000 L 400.000 0.000 200.000 0.000 L 0.000 0.000 0.000 200.000 M162.882 58.974 C 162.893 73.538,162.810 85.694,162.697 85.988 C 162.526 86.433,159.252 86.506,143.258 86.418 C 132.679 86.360,123.804 86.316,123.535 86.321 C 123.159 86.326,123.047 84.391,123.047 77.922 L 123.047 69.517 132.516 60.247 C 142.934 50.049,152.003 41.227,158.004 35.455 C 160.855 32.712,162.036 31.808,162.385 32.098 C 162.753 32.403,162.867 38.588,162.882 58.974 M242.586 36.035 C 245.059 38.452,251.211 44.409,256.256 49.273 C 261.302 54.137,268.026 60.667,271.199 63.785 L 276.969 69.453 276.863 77.933 L 276.758 86.414 257.617 86.370 C 247.090 86.346,238.169 86.327,237.793 86.327 C 237.148 86.328,237.109 84.766,237.109 58.984 C 237.109 37.331,237.211 31.641,237.599 31.641 C 237.868 31.641,240.112 33.618,242.586 36.035 M301.670 93.467 C 306.063 97.867,330.212 121.354,332.083 123.047 L 333.593 124.414 333.609 153.202 L 333.625 181.990 329.656 185.819 C 327.473 187.925,325.489 189.892,325.246 190.189 C 323.676 192.113,294.957 220.703,294.594 220.703 C 294.257 220.703,294.147 209.368,294.154 175.567 C 294.159 150.742,294.060 130.264,293.934 130.059 C 293.800 129.843,290.206 129.688,285.329 129.688 L 276.953 129.688 276.953 211.226 L 276.953 292.765 257.520 312.004 C 246.831 322.585,237.866 331.245,237.598 331.246 C 237.212 331.249,237.109 325.729,237.109 304.938 L 237.109 278.627 200.159 241.628 C 179.836 221.279,163.130 204.709,163.033 204.806 C 162.936 204.902,162.821 233.348,162.776 268.018 C 162.717 314.094,162.578 331.055,162.259 331.055 C 162.020 331.055,153.143 322.459,142.533 311.953 L 123.242 292.850 123.047 211.367 L 122.852 129.883 114.472 129.994 C 109.864 130.055,106.036 130.162,105.967 130.231 C 105.898 130.300,105.841 150.677,105.841 175.512 C 105.841 200.348,105.700 220.755,105.528 220.862 C 105.355 220.969,96.372 212.182,85.566 201.336 L 65.917 181.616 66.185 153.015 L 66.454 124.414 68.286 122.679 C 71.062 120.049,88.035 103.583,95.265 96.505 L 101.664 90.242 200.060 90.246 L 298.456 90.250 301.670 93.467 M162.878 130.718 C 162.871 131.225,162.859 135.285,162.852 139.738 L 162.840 147.836 199.682 184.658 C 219.945 204.910,236.656 221.480,236.818 221.482 C 236.980 221.483,237.068 200.874,237.013 175.684 L 236.914 129.883 228.739 129.777 C 224.242 129.719,220.407 129.827,220.216 130.018 C 220.019 130.216,219.883 144.629,219.902 163.435 C 219.929 189.969,219.836 196.542,219.435 196.696 C 219.148 196.806,210.682 188.629,199.527 177.465 L 180.118 158.043 180.093 144.186 C 180.080 136.565,179.974 130.235,179.859 130.119 C 179.744 130.004,175.879 129.884,171.270 129.852 L 162.891 129.795 162.878 130.718 M89.863 221.742 C 102.507 234.345,113.080 244.797,113.359 244.970 C 114.023 245.380,114.328 282.703,113.674 283.357 C 113.386 283.645,106.161 276.669,89.633 260.146 L 66.003 236.523 66.030 218.239 C 66.055 201.382,66.141 198.828,66.683 198.828 C 66.788 198.828,77.220 209.139,89.863 221.742 M333.760 199.480 C 333.898 199.839,333.990 208.345,333.965 218.382 L 333.919 236.631 332.034 238.530 C 311.328 259.392,286.678 283.615,286.355 283.415 C 286.068 283.238,285.938 277.312,285.938 264.457 L 285.938 245.757 290.187 241.613 C 292.524 239.334,303.115 228.782,313.722 218.163 C 333.983 197.882,333.367 198.456,333.760 199.480 M200.468 248.745 L 219.881 268.179 219.896 308.512 L 219.911 348.846 210.494 358.396 C 205.314 363.649,200.740 368.053,200.329 368.184 C 199.598 368.416,196.411 365.379,185.604 354.155 C 184.024 352.514,182.618 351.172,182.479 351.172 C 182.340 351.172,181.745 350.569,181.157 349.831 L 180.087 348.491 180.088 289.149 C 180.089 256.511,180.204 229.692,180.344 229.552 C 180.484 229.412,180.701 229.300,180.827 229.305 C 180.952 229.309,189.791 238.057,200.468 248.745 " stroke="none" fill="#fbfbfb" fill-rule="evenodd"></path><path id="path3" d="M158.388 35.254 L 155.664 38.086 158.496 35.362 C 161.126 32.832,161.507 32.422,161.220 32.422 C 161.161 32.422,159.886 33.696,158.388 35.254 M162.625 34.766 C 162.625 36.162,162.696 36.733,162.783 36.035 C 162.869 35.337,162.869 34.194,162.783 33.496 C 162.696 32.798,162.625 33.369,162.625 34.766 M241.016 34.961 C 242.400 36.357,243.620 37.500,243.727 37.500 C 243.835 37.500,242.790 36.357,241.406 34.961 C 240.022 33.564,238.802 32.422,238.694 32.422 C 238.587 32.422,239.632 33.564,241.016 34.961 M237.281 43.359 C 237.281 49.268,237.335 51.685,237.401 48.730 C 237.468 45.776,237.468 40.942,237.401 37.988 C 237.335 35.034,237.281 37.451,237.281 43.359 M162.498 61.914 L 162.305 86.133 159.961 86.360 L 157.617 86.587 160.051 86.653 C 163.193 86.738,162.931 89.158,162.802 61.328 L 162.692 37.695 162.498 61.914 M151.163 42.090 L 147.852 45.508 151.270 42.196 C 153.149 40.375,154.688 38.837,154.688 38.778 C 154.688 38.494,154.239 38.915,151.163 42.090 M246.529 40.332 C 246.626 40.386,248.545 42.188,250.794 44.336 L 254.883 48.242 250.984 44.238 C 248.839 42.036,246.921 40.234,246.720 40.234 C 246.519 40.234,246.433 40.278,246.529 40.332 M145.299 47.949 L 143.164 50.195 145.410 48.060 C 146.646 46.886,147.656 45.875,147.656 45.814 C 147.656 45.524,147.283 45.863,145.299 47.949 M262.495 55.580 C 267.284 60.451,268.965 62.024,267.528 60.291 C 266.958 59.603,257.928 50.711,257.487 50.404 C 257.344 50.304,259.597 52.633,262.495 55.580 M136.323 56.543 L 130.664 62.305 136.426 56.646 C 139.595 53.533,142.188 50.940,142.188 50.884 C 142.188 50.604,141.580 51.190,136.323 56.543 M237.255 58.398 C 237.256 60.762,237.321 61.678,237.398 60.435 C 237.476 59.192,237.476 57.258,237.397 56.138 C 237.318 55.018,237.255 56.035,237.255 58.398 M269.141 62.035 C 269.141 62.450,270.649 63.864,270.849 63.637 C 270.926 63.549,270.573 63.075,270.065 62.584 C 269.557 62.093,269.141 61.846,269.141 62.035 M237.267 78.711 C 237.268 82.148,237.328 83.502,237.400 81.720 C 237.473 79.937,237.472 77.125,237.399 75.470 C 237.326 73.815,237.267 75.273,237.267 78.711 M95.265 96.505 C 84.341 107.199,70.205 120.880,68.262 122.639 C 67.241 123.562,66.406 124.500,66.406 124.722 C 66.406 125.134,66.816 124.759,74.197 117.578 C 76.516 115.322,81.205 110.769,84.617 107.459 C 88.029 104.149,91.996 100.298,93.433 98.899 L 96.047 96.357 97.040 97.300 C 97.586 97.818,98.036 98.509,98.040 98.834 C 98.052 99.913,67.216 130.359,66.790 129.688 C 66.536 129.287,66.416 130.061,66.412 132.129 C 66.409 133.794,66.563 135.112,66.755 135.059 C 67.246 134.921,98.047 165.480,98.047 166.105 C 98.047 166.387,92.813 171.842,86.415 178.227 L 74.784 189.836 70.600 185.640 L 66.417 181.443 66.309 167.968 L 66.200 154.492 66.108 168.103 L 66.016 181.714 85.615 201.385 C 96.394 212.204,105.355 220.969,105.528 220.862 C 105.700 220.755,105.841 200.348,105.841 175.512 C 105.841 150.677,105.898 130.300,105.967 130.231 C 106.036 130.162,109.855 130.055,114.453 129.994 L 122.814 129.883 123.105 130.859 C 123.376 131.770,123.390 131.757,123.319 130.664 L 123.242 129.492 114.844 129.463 C 110.225 129.447,106.226 129.510,105.957 129.603 C 105.578 129.733,105.469 133.087,105.469 144.601 L 105.469 159.430 102.694 162.039 C 101.168 163.474,99.706 164.771,99.446 164.920 C 98.959 165.200,67.093 133.691,66.885 132.724 C 66.764 132.160,98.573 100.000,99.253 100.000 C 99.495 100.000,106.310 106.593,114.398 114.652 C 123.164 123.388,129.338 129.251,129.688 129.172 C 130.049 129.090,124.551 123.370,115.325 114.227 C 107.103 106.080,100.380 99.212,100.384 98.965 C 100.387 98.717,102.123 96.740,104.240 94.570 L 108.090 90.625 132.666 90.625 L 157.242 90.625 161.282 94.451 C 163.936 96.963,165.274 98.505,165.181 98.942 C 165.103 99.307,158.365 106.287,150.207 114.452 C 140.814 123.853,135.641 129.297,136.100 129.297 C 136.533 129.297,142.721 123.422,151.427 114.746 C 159.458 106.743,166.211 100.134,166.434 100.058 C 166.809 99.931,199.231 131.928,199.209 132.404 C 199.177 133.083,181.553 150.391,180.893 150.391 C 180.568 150.391,180.456 147.598,180.482 140.175 C 180.510 132.138,180.408 129.890,180.005 129.634 C 179.390 129.244,174.753 129.180,175.139 129.566 C 175.288 129.715,176.240 129.799,177.255 129.754 C 180.235 129.622,180.066 128.763,180.093 144.178 L 180.118 158.043 199.527 177.465 C 210.682 188.629,219.148 196.806,219.435 196.696 C 219.836 196.542,219.929 189.979,219.902 163.492 C 219.884 145.335,219.979 130.301,220.114 130.083 C 220.248 129.866,221.886 129.652,223.754 129.608 L 227.148 129.528 223.930 129.397 C 218.789 129.187,219.141 128.405,219.141 140.053 C 219.141 145.524,219.006 150.000,218.841 150.000 C 218.357 150.000,201.172 133.033,201.172 132.556 C 201.172 132.062,233.055 100.000,233.546 100.000 C 234.089 100.000,235.331 101.193,249.667 115.496 C 258.114 123.923,263.800 129.311,264.120 129.191 C 264.450 129.068,259.068 123.410,249.823 114.161 C 241.669 106.003,234.931 99.130,234.851 98.888 C 234.770 98.646,236.520 96.694,238.739 94.551 L 242.773 90.654 267.342 90.640 L 291.910 90.625 295.961 94.611 C 298.189 96.804,299.965 98.736,299.908 98.905 C 299.851 99.075,293.045 105.982,284.784 114.255 C 275.306 123.747,270.030 129.297,270.487 129.297 C 270.916 129.297,277.144 123.387,285.819 114.746 C 293.855 106.743,300.682 100.195,300.992 100.195 C 301.860 100.195,333.203 131.641,333.203 132.512 C 333.203 133.206,304.305 162.720,301.928 164.454 L 300.926 165.185 297.729 162.109 L 294.531 159.034 294.531 144.368 L 294.531 129.702 293.652 129.487 C 293.169 129.368,289.170 129.321,284.766 129.382 L 276.758 129.492 276.745 137.500 L 276.732 145.508 276.851 137.598 L 276.969 129.688 285.337 129.688 C 290.209 129.688,293.800 129.843,293.934 130.059 C 294.060 130.264,294.159 150.742,294.154 175.567 C 294.147 209.368,294.257 220.703,294.594 220.703 C 294.957 220.703,323.676 192.113,325.246 190.189 C 325.489 189.892,327.466 187.932,329.640 185.834 C 331.815 183.737,333.594 181.861,333.594 181.665 C 333.594 181.470,331.869 183.077,329.760 185.236 C 326.714 188.356,325.767 189.111,325.147 188.914 C 324.348 188.660,301.953 166.601,301.953 166.068 C 301.953 165.572,333.111 134.804,333.361 135.053 C 333.489 135.182,333.580 133.895,333.563 132.194 C 333.546 130.493,333.444 129.320,333.336 129.586 C 333.180 129.972,333.035 129.972,332.623 129.586 C 331.898 128.907,309.536 106.636,305.293 102.368 L 301.796 98.850 302.724 97.863 C 304.237 96.252,302.561 94.860,321.582 113.524 C 328.188 120.007,333.594 125.094,333.594 124.830 C 333.594 124.566,332.911 123.749,332.077 123.015 C 330.412 121.550,306.810 98.614,301.670 93.467 L 298.456 90.250 200.060 90.246 L 101.664 90.242 95.265 96.505 M105.859 91.122 C 105.859 91.395,104.390 93.080,102.595 94.866 L 99.331 98.113 98.298 97.156 C 96.859 95.823,96.966 95.443,99.499 92.882 C 101.771 90.587,105.859 89.455,105.859 91.122 M173.047 91.122 C 173.047 91.395,171.551 93.107,169.723 94.925 L 166.399 98.232 163.082 94.825 C 158.771 90.395,158.588 90.625,166.406 90.625 C 171.520 90.625,173.047 90.739,173.047 91.122 M228.586 94.424 C 231.095 96.890,232.413 98.470,232.340 98.925 C 232.188 99.863,200.885 131.250,200.102 131.250 C 199.435 131.250,167.578 99.680,167.578 99.020 C 167.578 98.602,174.365 91.634,175.391 91.000 C 175.734 90.787,186.049 90.634,200.348 90.631 L 224.719 90.625 228.586 94.424 M240.234 91.105 C 240.234 91.780,234.318 97.656,233.638 97.656 C 233.085 97.656,226.970 91.486,226.959 90.918 C 226.956 90.757,229.941 90.625,233.594 90.625 C 238.582 90.625,240.234 90.744,240.234 91.105 M300.787 93.170 C 303.450 95.857,303.549 96.309,301.736 97.505 C 300.992 97.996,294.141 92.121,294.141 90.992 C 294.141 89.333,298.352 90.713,300.787 93.170 M162.650 129.860 C 162.531 130.170,162.516 130.741,162.617 131.130 C 162.739 131.601,162.815 131.487,162.845 130.784 C 162.886 129.840,163.060 129.717,164.551 129.583 L 166.211 129.433 164.539 129.365 C 163.394 129.318,162.798 129.475,162.650 129.860 M231.348 129.581 C 232.153 129.666,233.472 129.666,234.277 129.581 C 235.083 129.497,234.424 129.428,232.813 129.428 C 231.201 129.428,230.542 129.497,231.348 129.581 M236.426 129.750 C 237.069 130.242,237.116 132.697,237.210 170.313 L 237.310 210.352 237.307 169.927 C 237.305 129.810,237.299 129.502,236.523 129.365 C 235.794 129.236,235.788 129.261,236.426 129.750 M169.824 129.974 C 170.737 130.056,172.231 130.056,173.145 129.974 C 174.058 129.891,173.311 129.824,171.484 129.824 C 169.658 129.824,168.911 129.891,169.824 129.974 M162.663 139.648 C 162.663 143.730,162.721 145.347,162.791 143.241 C 162.862 141.136,162.862 137.796,162.791 135.820 C 162.720 133.843,162.662 135.566,162.663 139.648 M209.956 142.950 L 219.141 152.111 219.182 171.466 C 219.204 182.111,219.256 191.931,219.296 193.289 C 219.336 194.646,219.243 195.835,219.089 195.930 C 218.935 196.026,210.182 187.488,199.639 176.959 L 180.469 157.813 180.469 155.435 L 180.469 153.057 182.910 150.495 C 189.581 143.494,199.812 133.577,200.262 133.677 C 200.542 133.738,204.904 137.911,209.956 142.950 M123.210 143.750 C 123.210 147.939,123.268 149.653,123.338 147.559 C 123.408 145.464,123.408 142.036,123.338 139.941 C 123.268 137.847,123.210 139.561,123.210 143.750 M163.096 148.420 C 164.381 150.018,165.625 151.227,165.625 150.878 C 165.625 150.697,164.882 149.854,163.975 149.005 C 163.067 148.156,162.672 147.893,163.096 148.420 M169.269 154.492 C 170.426 156.042,236.937 222.177,237.185 222.024 C 237.358 221.917,237.461 219.246,237.414 216.090 L 237.328 210.352 237.208 215.918 C 237.142 218.979,236.961 221.484,236.807 221.484 C 236.652 221.484,221.327 206.323,202.751 187.793 C 184.175 169.263,169.108 154.277,169.269 154.492 M105.469 165.797 C 105.469 171.665,105.446 171.685,102.376 168.587 L 99.929 166.119 102.383 163.528 C 105.551 160.183,105.469 160.123,105.469 165.797 M297.949 163.831 C 300.495 166.267,300.508 166.103,297.528 169.045 C 294.355 172.177,294.531 172.347,294.531 166.163 C 294.531 160.099,294.249 160.291,297.949 163.831 M102.547 169.980 L 105.487 172.773 105.457 196.543 C 105.440 209.616,105.304 220.310,105.155 220.308 C 105.005 220.305,104.486 219.690,104.000 218.940 C 103.515 218.191,102.937 217.578,102.717 217.578 C 102.148 217.578,75.726 190.986,75.869 190.557 C 76.044 190.032,98.954 167.188,99.306 167.188 C 99.471 167.188,100.930 168.444,102.547 169.980 M313.582 179.388 L 324.651 190.420 309.884 205.159 C 301.762 213.265,294.985 219.903,294.824 219.910 C 294.357 219.929,294.486 218.561,295.000 218.047 C 295.365 217.682,295.365 217.474,295.000 217.109 C 294.647 216.756,294.531 211.295,294.529 194.941 L 294.526 173.242 297.732 170.247 C 301.619 166.616,299.595 165.448,313.582 179.388 M276.669 170.313 C 276.669 171.279,276.745 171.675,276.838 171.191 C 276.931 170.708,276.931 169.917,276.838 169.434 C 276.745 168.950,276.669 169.346,276.669 170.313 M66.445 198.926 C 66.538 198.979,67.402 199.727,68.365 200.586 L 70.117 202.148 68.573 200.488 C 67.724 199.575,66.860 198.828,66.652 198.828 C 66.445 198.828,66.352 198.872,66.445 198.926 M328.314 203.613 L 323.633 208.398 328.503 203.711 C 331.181 201.133,333.451 198.979,333.548 198.926 C 333.645 198.872,333.560 198.828,333.360 198.828 C 333.159 198.828,330.889 200.981,328.314 203.613 M333.773 216.016 C 333.773 225.146,333.824 228.882,333.886 224.316 C 333.949 219.751,333.949 212.280,333.886 207.715 C 333.824 203.149,333.773 206.885,333.773 216.016 M66.109 219.337 L 66.016 236.526 89.639 260.147 C 105.897 276.403,113.389 283.642,113.667 283.365 C 113.936 283.095,114.035 276.800,113.965 264.430 L 113.859 245.898 113.766 264.551 C 113.714 274.810,113.539 283.203,113.378 283.203 C 113.216 283.203,102.583 272.700,89.748 259.863 L 66.413 236.523 66.308 219.336 L 66.203 202.148 66.109 219.337 M162.656 204.785 C 162.501 205.054,162.526 205.136,162.710 204.968 C 162.895 204.800,164.725 206.294,166.777 208.288 L 170.508 211.914 166.805 208.105 C 162.646 203.829,163.030 204.136,162.656 204.785 M162.591 208.203 C 162.591 208.955,162.671 209.263,162.769 208.887 C 162.868 208.511,162.868 207.896,162.769 207.520 C 162.671 207.144,162.591 207.451,162.591 208.203 M76.953 209.208 C 76.953 209.471,77.627 210.127,78.712 210.923 C 79.141 211.237,78.976 210.929,78.345 210.239 C 77.188 208.974,76.953 208.800,76.953 209.208 M162.596 270.215 C 162.543 303.569,162.370 330.859,162.212 330.859 C 162.054 330.859,159.461 328.443,156.450 325.490 L 150.977 320.121 156.534 325.772 C 160.333 329.636,162.218 331.297,162.492 331.023 C 162.764 330.752,162.861 311.079,162.793 270.096 L 162.693 209.570 162.596 270.215 M81.869 214.160 C 83.140 215.503,85.234 217.562,86.523 218.735 C 87.813 219.908,86.849 218.810,84.381 216.294 C 79.637 211.455,77.964 210.035,81.869 214.160 M318.530 213.379 L 317.383 214.648 318.652 213.501 C 319.351 212.870,319.922 212.299,319.922 212.232 C 319.922 211.930,319.600 212.196,318.530 213.379 M173.047 214.466 C 173.047 214.597,174.277 215.897,175.781 217.355 C 177.285 218.814,178.516 219.911,178.516 219.793 C 178.516 219.675,177.285 218.375,175.781 216.903 C 174.277 215.432,173.047 214.335,173.047 214.466 M101.740 233.872 C 108.176 240.362,113.523 245.592,113.622 245.493 C 113.721 245.394,113.722 245.269,113.624 245.215 C 113.527 245.161,108.180 239.932,101.743 233.594 L 90.039 222.070 101.740 233.872 M302.730 229.199 L 296.680 235.352 302.832 229.302 C 308.548 223.681,309.161 223.047,308.882 223.047 C 308.826 223.047,306.057 225.815,302.730 229.199 M180.344 229.552 C 180.204 229.692,180.089 256.511,180.088 289.149 L 180.087 348.491 181.157 349.831 C 181.745 350.569,182.340 351.172,182.479 351.172 C 182.618 351.172,184.024 352.514,185.604 354.155 C 196.411 365.379,199.598 368.416,200.329 368.184 C 200.740 368.053,205.314 363.649,210.494 358.396 L 219.911 348.846 219.896 308.512 L 219.881 268.179 200.468 248.745 C 189.791 238.057,180.952 229.309,180.827 229.305 C 180.701 229.300,180.484 229.412,180.344 229.552 M194.798 243.777 C 202.278 251.311,208.477 257.557,208.574 257.657 C 208.830 257.921,200.681 266.016,200.160 266.016 C 199.616 266.016,181.673 248.017,180.990 246.787 C 180.394 245.714,180.247 230.078,180.833 230.078 C 181.033 230.078,187.318 236.243,194.798 243.777 M333.656 235.176 C 333.622 235.938,333.375 236.817,333.108 237.129 C 332.835 237.447,332.934 237.420,333.332 237.067 C 333.835 236.621,333.995 236.051,333.880 235.113 L 333.719 233.789 333.656 235.176 M290.813 241.113 L 286.914 245.117 290.918 241.218 C 293.120 239.074,294.922 237.272,294.922 237.214 C 294.922 236.932,294.434 237.394,290.813 241.113 M319.138 251.072 L 306.445 263.862 318.555 251.951 C 329.360 241.321,332.340 238.281,331.950 238.281 C 331.885 238.281,326.120 244.037,319.138 251.072 M286.031 265.114 C 285.938 283.148,286.025 284.450,287.241 283.224 C 287.587 282.875,287.534 282.828,287.016 283.025 C 286.377 283.268,286.330 282.196,286.230 265.177 L 286.125 247.070 286.031 265.114 M207.031 248.545 C 207.031 248.604,208.394 249.966,210.059 251.572 L 213.086 254.492 210.166 251.465 C 207.454 248.653,207.031 248.259,207.031 248.545 M190.231 257.851 C 195.174 262.814,199.219 266.997,199.219 267.147 C 199.219 267.757,181.267 285.213,180.884 284.976 C 180.327 284.632,180.300 248.828,180.856 248.828 C 181.069 248.828,185.288 252.889,190.231 257.851 M276.669 251.172 C 276.669 252.139,276.745 252.534,276.838 252.051 C 276.931 251.567,276.931 250.776,276.838 250.293 C 276.745 249.810,276.669 250.205,276.669 251.172 M214.350 263.379 L 219.118 268.164 219.127 291.478 C 219.135 310.822,219.045 314.879,218.597 315.306 C 218.300 315.589,214.092 319.749,209.246 324.552 C 204.400 329.354,200.260 333.221,200.046 333.146 C 199.608 332.991,192.463 325.996,185.254 318.664 L 180.469 313.798 180.469 300.677 L 180.469 287.556 190.313 277.756 L 200.158 267.956 202.297 270.013 C 203.473 271.145,207.396 275.015,211.014 278.613 C 217.108 284.674,218.974 286.236,218.015 284.473 C 217.810 284.097,216.002 282.176,213.997 280.205 C 207.106 273.430,201.172 267.318,201.172 266.994 C 201.172 266.648,209.042 258.596,209.381 258.595 C 209.492 258.594,211.728 260.747,214.350 263.379 M220.117 261.719 C 221.175 262.793,222.129 263.672,222.236 263.672 C 222.344 263.672,221.566 262.793,220.508 261.719 C 219.450 260.645,218.496 259.766,218.389 259.766 C 218.281 259.766,219.059 260.645,220.117 261.719 M303.125 266.992 C 301.524 268.604,300.303 269.922,300.410 269.922 C 300.518 269.922,301.915 268.604,303.516 266.992 C 305.116 265.381,306.338 264.063,306.230 264.063 C 306.123 264.063,304.726 265.381,303.125 266.992 M297.449 272.754 L 295.117 275.195 297.559 272.864 C 298.901 271.581,300.000 270.483,300.000 270.422 C 300.000 270.134,299.614 270.486,297.449 272.754 M233.077 274.612 C 235.377 276.984,237.124 279.122,237.223 279.688 L 237.394 280.664 237.447 279.647 C 237.502 278.584,236.684 277.634,231.594 272.854 C 230.223 271.566,230.890 272.357,233.077 274.612 M291.152 278.914 C 289.831 280.199,288.869 281.250,289.016 281.250 C 289.162 281.250,290.326 280.195,291.602 278.906 C 294.603 275.873,294.273 275.878,291.152 278.914 M237.204 306.348 C 237.108 331.705,237.173 332.968,238.474 330.864 C 238.610 330.643,238.454 330.577,238.109 330.709 C 237.570 330.916,237.495 328.320,237.402 306.193 L 237.299 281.445 237.204 306.348 M276.674 286.133 C 276.677 287.207,276.753 287.600,276.843 287.006 C 276.933 286.413,276.930 285.534,276.837 285.053 C 276.745 284.573,276.671 285.059,276.674 286.133 M276.635 290.594 C 276.589 291.927,276.315 293.013,275.893 293.524 L 275.224 294.336 276.111 293.521 C 276.869 292.825,276.977 292.398,276.853 290.592 L 276.707 288.477 276.635 290.594 M123.047 292.434 C 123.047 292.641,123.794 293.505,124.707 294.354 L 126.367 295.898 124.805 294.147 C 123.945 293.183,123.198 292.319,123.145 292.226 C 123.091 292.133,123.047 292.227,123.047 292.434 M271.476 297.949 L 268.164 301.367 271.582 298.055 C 274.757 294.980,275.178 294.531,274.894 294.531 C 274.835 294.531,273.297 296.069,271.476 297.949 M262.109 306.906 C 261.243 307.822,261.227 307.889,261.966 307.496 C 262.424 307.252,262.902 306.784,263.028 306.456 C 263.334 305.658,263.250 305.699,262.109 306.906 M195.265 330.207 C 197.332 332.318,199.023 334.202,199.023 334.393 C 199.023 334.780,183.193 350.781,182.810 350.781 C 182.677 350.781,182.096 350.288,181.518 349.686 L 180.469 348.590 180.469 332.563 C 180.469 323.749,180.589 316.416,180.736 316.269 C 180.992 316.013,187.204 321.973,195.265 330.207 M219.146 316.699 C 219.593 341.155,219.106 350.391,217.372 350.391 C 216.812 350.391,201.172 335.001,201.172 334.450 C 201.172 333.615,219.131 315.879,219.146 316.699 M246.845 322.168 L 245.898 323.242 247.070 322.266 C 247.715 321.729,248.315 321.245,248.405 321.191 C 248.494 321.138,248.393 321.094,248.180 321.094 C 247.967 321.094,247.366 321.577,246.845 322.168 M240.014 329.004 L 238.867 330.273 240.137 329.126 C 241.320 328.057,241.586 327.734,241.284 327.734 C 241.217 327.734,240.646 328.306,240.014 329.004 M208.586 343.492 C 212.910 347.754,216.394 351.403,216.328 351.601 C 216.179 352.048,200.310 367.969,200.013 367.969 C 199.508 367.969,183.902 352.007,184.034 351.625 C 184.333 350.763,199.774 335.522,200.240 335.630 C 200.507 335.692,204.262 339.230,208.586 343.492 " stroke="none" fill="#91bbd8" fill-rule="evenodd"></path><path id="path4" d="M158.594 35.125 C 156.982 36.761,150.139 43.458,143.385 50.007 C 136.632 56.556,129.293 63.684,127.077 65.847 L 123.047 69.780 123.053 77.566 C 123.056 81.848,123.199 85.573,123.371 85.844 C 123.617 86.231,127.805 86.314,142.994 86.234 L 162.305 86.133 162.309 59.668 L 162.313 33.203 162.208 59.574 L 162.104 85.945 142.868 85.844 L 123.633 85.742 123.527 77.892 L 123.422 70.043 131.535 62.001 C 135.997 57.577,140.615 53.046,141.797 51.932 C 142.979 50.817,147.968 46.016,152.885 41.261 C 157.802 36.507,161.977 32.661,162.162 32.715 C 162.348 32.769,162.500 32.637,162.500 32.422 C 162.500 31.527,161.358 32.317,158.594 35.125 M237.332 32.378 C 237.214 32.568,237.364 32.700,237.664 32.671 C 237.965 32.641,240.473 34.814,243.237 37.500 C 246.002 40.186,251.159 45.181,254.698 48.602 C 258.237 52.022,264.604 58.246,268.848 62.433 C 273.091 66.620,276.565 69.886,276.568 69.691 C 276.571 69.496,274.483 67.314,271.928 64.844 C 269.373 62.373,262.823 56.021,257.372 50.728 C 236.201 30.171,237.794 31.630,237.332 32.378 M237.200 68.750 C 237.200 69.502,237.280 69.810,237.379 69.434 C 237.477 69.058,237.477 68.442,237.379 68.066 C 237.280 67.690,237.200 67.998,237.200 68.750 M276.723 76.953 C 276.723 80.713,276.782 82.251,276.853 80.371 C 276.925 78.491,276.925 75.415,276.853 73.535 C 276.782 71.655,276.723 73.193,276.723 76.953 M276.472 85.069 L 276.245 85.938 257.087 85.938 C 239.254 85.938,237.902 85.890,237.531 85.254 C 237.088 84.493,236.981 84.757,237.346 85.710 C 237.558 86.262,239.663 86.328,257.085 86.328 C 277.593 86.328,277.414 86.343,276.863 84.691 C 276.773 84.421,276.597 84.591,276.472 85.069 M162.200 138.809 L 162.109 148.127 199.512 185.391 C 220.201 206.004,237.132 222.574,237.402 222.473 C 237.744 222.345,237.870 221.379,237.820 219.251 L 237.750 216.211 237.527 219.141 C 237.405 220.752,237.178 222.070,237.023 222.070 C 236.868 222.070,220.040 205.385,199.627 184.991 L 162.514 147.912 162.402 138.702 L 162.290 129.492 162.200 138.809 M276.733 155.469 C 276.733 161.162,276.788 163.491,276.854 160.645 C 276.921 157.798,276.921 153.140,276.854 150.293 C 276.788 147.446,276.733 149.775,276.733 155.469 M123.183 154.297 C 123.183 156.123,123.251 156.870,123.333 155.957 C 123.415 155.044,123.415 153.550,123.333 152.637 C 123.251 151.724,123.183 152.471,123.183 154.297 M123.228 176.953 C 123.228 187.373,123.278 191.636,123.340 186.426 C 123.401 181.216,123.401 172.690,123.340 167.480 C 123.278 162.271,123.228 166.533,123.228 176.953 M276.661 167.383 C 276.665 168.242,276.745 168.548,276.839 168.062 C 276.932 167.576,276.929 166.873,276.831 166.499 C 276.733 166.126,276.657 166.523,276.661 167.383 M276.721 179.102 C 276.721 182.539,276.781 183.893,276.853 182.110 C 276.926 180.328,276.926 177.515,276.853 175.860 C 276.779 174.206,276.720 175.664,276.721 179.102 M276.741 202.148 C 276.741 210.742,276.792 214.202,276.855 209.837 C 276.918 205.472,276.918 198.441,276.855 194.212 C 276.792 189.983,276.740 193.555,276.741 202.148 M66.406 199.609 C 66.406 199.824,66.539 200.000,66.700 200.000 C 66.862 200.000,77.497 210.428,90.333 223.174 C 103.169 235.920,113.672 246.240,113.672 246.107 C 113.672 245.790,66.968 199.219,66.651 199.219 C 66.516 199.219,66.406 199.395,66.406 199.609 M327.162 205.064 C 323.953 208.279,321.408 210.991,321.507 211.091 C 321.607 211.190,324.323 208.559,327.543 205.243 C 330.764 201.928,333.308 199.216,333.198 199.217 C 333.088 199.218,330.372 201.849,327.162 205.064 M123.168 202.148 C 123.170 203.437,123.243 203.918,123.330 203.216 C 123.417 202.514,123.415 201.459,123.326 200.872 C 123.237 200.285,123.166 200.859,123.168 202.148 M162.524 204.073 C 162.240 204.415,162.081 224.089,162.013 267.494 L 161.914 330.419 142.773 311.401 L 123.633 292.383 123.434 251.367 L 123.235 210.352 123.129 251.367 L 123.024 292.383 142.468 311.621 C 153.162 322.202,162.044 330.859,162.206 330.859 C 162.368 330.859,162.500 302.481,162.500 267.796 C 162.500 233.112,162.642 204.646,162.815 204.539 C 162.988 204.432,168.349 209.535,174.729 215.879 C 181.108 222.223,186.328 227.271,186.328 227.098 C 186.328 226.242,162.918 203.598,162.524 204.073 M123.145 207.617 C 123.150 208.477,123.230 208.782,123.323 208.296 C 123.417 207.810,123.413 207.107,123.315 206.734 C 123.217 206.360,123.141 206.758,123.145 207.617 M315.363 216.895 C 312.756 219.526,305.156 227.122,298.475 233.775 C 291.794 240.427,286.328 245.957,286.328 246.065 C 286.328 246.172,287.163 245.429,288.184 244.414 C 289.204 243.399,296.968 235.715,305.437 227.339 C 313.907 218.963,320.671 212.109,320.470 212.109 C 320.269 212.109,317.971 214.263,315.363 216.895 M276.741 233.398 C 276.741 241.992,276.792 245.452,276.855 241.087 C 276.918 236.722,276.918 229.691,276.855 225.462 C 276.792 221.233,276.740 224.805,276.741 233.398 M189.848 230.761 C 189.854 231.165,194.870 236.124,195.058 235.912 C 195.142 235.819,194.002 234.555,192.527 233.105 C 191.051 231.654,189.846 230.599,189.848 230.761 M89.730 259.751 C 102.666 272.739,113.300 283.285,113.363 283.187 C 113.425 283.088,102.842 272.462,89.844 259.572 L 66.211 236.136 89.730 259.751 M332.538 237.207 C 332.094 237.690,323.142 246.641,312.643 257.096 C 302.144 267.552,292.502 277.220,291.215 278.581 C 289.928 279.941,298.708 271.299,310.726 259.375 C 322.744 247.451,332.816 237.388,333.108 237.012 C 333.863 236.039,333.493 236.165,332.538 237.207 M197.256 238.293 C 197.273 238.654,237.500 278.672,237.500 278.327 C 237.500 278.146,228.443 269.017,217.373 258.042 C 206.304 247.066,197.251 238.179,197.256 238.293 M113.457 263.867 C 113.457 271.172,113.509 274.105,113.574 270.385 C 113.638 266.665,113.638 260.689,113.573 257.104 C 113.509 253.519,113.456 256.563,113.457 263.867 M276.741 268.555 C 276.741 277.363,276.792 281.023,276.855 276.686 C 276.918 272.350,276.918 265.143,276.855 260.671 C 276.792 256.198,276.741 259.746,276.741 268.555 M287.727 281.844 C 287.333 282.369,286.857 282.703,286.670 282.587 C 286.482 282.471,286.328 282.562,286.328 282.789 C 286.328 283.017,286.473 283.203,286.651 283.203 C 287.088 283.203,288.851 281.299,288.624 281.072 C 288.524 280.972,288.121 281.320,287.727 281.844 M269.336 299.329 C 265.469 303.192,262.656 306.171,263.086 305.949 C 263.516 305.727,264.506 304.869,265.286 304.042 C 266.067 303.215,268.923 300.355,271.634 297.686 C 274.345 295.017,276.563 292.688,276.563 292.510 C 276.563 292.076,277.187 291.486,269.336 299.329 M255.678 312.898 C 252.247 316.332,249.580 319.141,249.749 319.141 C 249.918 319.141,252.860 316.328,256.286 312.891 C 259.712 309.453,262.380 306.644,262.215 306.648 C 262.049 306.653,259.108 309.465,255.678 312.898 M245.971 322.631 C 244.332 324.336,241.763 326.885,240.261 328.295 C 238.760 329.705,237.685 330.859,237.874 330.859 C 238.062 330.859,240.779 328.311,243.912 325.195 C 247.045 322.080,249.460 319.531,249.279 319.531 C 249.098 319.531,247.609 320.926,245.971 322.631 M237.599 328.320 C 237.603 329.180,237.683 329.485,237.776 328.999 C 237.870 328.513,237.866 327.810,237.768 327.437 C 237.671 327.063,237.594 327.461,237.599 328.320 " stroke="none" fill="#7c74a9" fill-rule="evenodd"></path></g></svg>